<?xml version="1.0" encoding="iso-8859-1"?>
<!-- Generator: Adobe Illustrator 16.0.0, SVG Export Plug-In . SVG Version: 6.00 Build 0)  -->
<!DOCTYPE svg PUBLIC "-//W3C//DTD SVG 1.1//EN" "http://www.w3.org/Graphics/SVG/1.1/DTD/svg11.dtd">
<svg version="1.1" id="Capa_1" xmlns="http://www.w3.org/2000/svg" xmlns:xlink="http://www.w3.org/1999/xlink" x="0px" y="0px"
	 width="79.536px" height="79.537px" viewBox="0 0 79.536 79.537" style="enable-background:new 0 0 79.536 79.537;"
	 xml:space="preserve">
<g>
	<path style="fill:#010002;" d="M39.769,4.971L0,44.739h9.942v29.826h59.652V44.739h9.941L39.769,4.971z M53.909,27.475
		c1.922,0,3.501,1.569,3.501,3.492c0,1.942-1.579,3.501-3.501,3.501c-1.941,0-3.505-1.559-3.505-3.501
		C50.404,29.044,51.968,27.475,53.909,27.475z M39.763,48.757c1.199,0,2.152,0.952,2.152,2.139c0,1.18-0.959,2.139-2.152,2.139
		c-1.188,0-2.159-0.964-2.159-2.139C37.604,49.709,38.575,48.757,39.763,48.757z M25.622,27.48c1.942,0,3.511,1.564,3.511,3.5
		c0,1.929-1.569,3.498-3.511,3.498c-1.924,0-3.495-1.568-3.495-3.498C22.126,29.044,23.698,27.48,25.622,27.48z M29.088,54.951
		l-0.699,12.903c0,0.456-0.365,0.828-0.81,0.828c-0.469,0-0.829-0.372-0.829-0.828l-0.759-12.903h-0.779l-0.709,12.903
		c0,0.456-0.36,0.828-0.823,0.828c-0.44,0-0.805-0.372-0.805-0.828L22.16,54.951h-2.281l2.359-14.481l-4.751,9.458
		c-0.173,0.425-0.668,0.632-1.087,0.456c-0.406-0.187-0.608-0.663-0.422-1.088c0,0,3.492-9.419,4.336-11.164
		c0.865-1.771,1.716-2.837,4.984-2.837h0.663c3.272,0,4.119,1.067,4.974,2.837c0.87,1.745,4.342,11.164,4.342,11.164
		c0.176,0.425-0.011,0.901-0.43,1.088c-0.417,0.176-0.901-0.031-1.069-0.456l-4.751-9.463l2.348,14.48h-2.286V54.951z
		 M46.458,51.408c-0.098,0.141-2.009,3.092-3.127,3.771c-1.082,0.657-1.119,0.367-1.215,1.32l-0.137,2.837l0.403,8.249
		c0.016,0.078,0,0.466-0.01,0.487c-0.111,0.347-0.44,0.61-0.818,0.61c-0.376,0-0.688-0.237-0.831-0.559
		c0-0.011-0.961-6.731-0.961-6.731s-0.965,6.721-0.965,6.731c-0.127,0.331-0.451,0.559-0.821,0.559c-0.373,0-0.707-0.264-0.808-0.61
		c-0.026-0.021-0.031-0.414-0.026-0.487l0.409-8.254l-0.132-2.832c-0.096-0.953-0.132-0.663-1.214-1.32
		c-1.124-0.679-3.034-3.63-3.13-3.771c-0.093-0.134-0.269-0.414-0.295-0.569c-0.064-0.306,0.132-0.59,0.44-0.642
		c0.223-0.041,0.401,0.088,0.546,0.238c0.153,0.155,2.349,3.065,3.977,3.35c0.371-0.046,0.779-0.238,1.823-0.238h0.414
		c1.033,0,1.442,0.192,1.817,0.238c1.637-0.284,3.821-3.194,3.961-3.35c0.146-0.15,0.337-0.279,0.555-0.238
		c0.306,0.052,0.502,0.331,0.435,0.642C46.728,50.994,46.541,51.263,46.458,51.408z M63.122,50.373
		c-0.415,0.171-0.912-0.031-1.083-0.445l-4.271-9.463l-0.228,7.609h-0.011l0.673,19.139c0.052,0.756-0.513,1.418-1.264,1.47
		c-0.041,0-0.072,0-0.108,0c-0.715,0-1.325-0.549-1.367-1.284l-1.563-15.757l-1.554,15.757c-0.067,0.74-0.668,1.284-1.372,1.284
		c-0.041,0-0.072,0-0.108,0c-0.751-0.057-1.326-0.72-1.279-1.47l0.684-19.139l-0.228-7.614l-4.288,9.468
		c-0.165,0.414-0.652,0.616-1.071,0.445c-0.42-0.176-0.606-0.663-0.43-1.098c0,0,2.998-9.414,3.867-11.159
		c0.854-1.755,2.19-2.827,5.453-2.827h0.673c3.263,0,4.588,1.072,5.442,2.827c0.865,1.745,3.868,11.159,3.868,11.159
		C63.743,49.709,63.546,50.186,63.122,50.373z"/>
</g>
<g>
</g>
<g>
</g>
<g>
</g>
<g>
</g>
<g>
</g>
<g>
</g>
<g>
</g>
<g>
</g>
<g>
</g>
<g>
</g>
<g>
</g>
<g>
</g>
<g>
</g>
<g>
</g>
<g>
</g>
</svg>
