<svg xmlns="http://www.w3.org/2000/svg" width="79.536" height="79.537"><path d="M39.769 4.971L0 44.739h9.942v29.826h59.652V44.739h9.941L39.769 4.971zm14.14 22.504c1.922 0 3.501 1.569 3.501 3.492a3.503 3.503 0 01-3.501 3.501 3.494 3.494 0 01-3.505-3.501 3.499 3.499 0 013.505-3.492zM39.763 48.757c1.199 0 2.152.952 2.152 2.139 0 1.18-.959 2.139-2.152 2.139-1.188 0-2.159-.964-2.159-2.139 0-1.187.971-2.139 2.159-2.139zM25.622 27.48a3.502 3.502 0 013.511 3.5 3.504 3.504 0 01-3.511 3.498 3.499 3.499 0 010-6.998zm3.466 27.471l-.699 12.903a.821.821 0 01-.81.828.822.822 0 01-.829-.828l-.759-12.903h-.779l-.709 12.903a.82.82 0 01-.823.828.82.82 0 01-.805-.828l-.715-12.903h-2.281l2.359-14.481-4.751 9.458a.835.835 0 01-1.087.456.831.831 0 01-.422-1.088s3.492-9.419 4.336-11.164c.865-1.771 1.716-2.837 4.984-2.837h.663c3.272 0 4.119 1.067 4.974 2.837.87 1.745 4.342 11.164 4.342 11.164a.832.832 0 01-.43 1.088.814.814 0 01-1.069-.456l-4.751-9.463 2.348 14.48h-2.286v.006zm17.37-3.543c-.098.141-2.009 3.092-3.127 3.771-1.082.657-1.119.367-1.215 1.32l-.137 2.837.403 8.249c.016.078 0 .466-.01.487a.875.875 0 01-.818.61.916.916 0 01-.831-.559c0-.011-.961-6.731-.961-6.731s-.965 6.721-.965 6.731a.878.878 0 01-.821.559.859.859 0 01-.808-.61c-.026-.021-.031-.414-.026-.487l.409-8.254-.132-2.832c-.096-.953-.132-.663-1.214-1.32-1.124-.679-3.034-3.63-3.13-3.771-.093-.134-.269-.414-.295-.569a.533.533 0 01.44-.642c.223-.041.401.088.546.238.153.155 2.349 3.065 3.977 3.35.371-.046.779-.238 1.823-.238h.414c1.033 0 1.442.192 1.817.238 1.637-.284 3.821-3.194 3.961-3.35.146-.15.337-.279.555-.238a.527.527 0 01.435.642c-.02.155-.207.424-.29.569zm16.664-1.035a.84.84 0 01-1.083-.445l-4.271-9.463-.228 7.609h-.011l.673 19.139a1.373 1.373 0 01-1.264 1.47h-.108a1.363 1.363 0 01-1.367-1.284L53.9 51.642l-1.554 15.757a1.39 1.39 0 01-1.372 1.284h-.108a1.396 1.396 0 01-1.279-1.47l.684-19.139-.228-7.614-4.288 9.468a.823.823 0 01-1.071.445c-.42-.176-.606-.663-.43-1.098 0 0 2.998-9.414 3.867-11.159.854-1.755 2.19-2.827 5.453-2.827h.673c3.263 0 4.588 1.072 5.442 2.827.865 1.745 3.868 11.159 3.868 11.159a.83.83 0 01-.435 1.098z" fill="#010002"/></svg>