<svg id="Layer_1" data-name="Layer 1" xmlns="http://www.w3.org/2000/svg" viewBox="0 0 64 64"><defs><style>.cls-1{fill:#9dcbf4}.cls-2{fill:none;stroke:#2a5081;stroke-linecap:round;stroke-linejoin:round;stroke-width:2px}</style></defs><path class="cls-1" d="M38.48 34.53s4.24-1.5 4.17 10c0 0-.24 5.5-3.24 5.42zm4.74-18c-.61 0 .11 3.26.14 3.56a12.87 12.87 0 01-.13 2.75c-.26 2.34 0 4.71-.42 7-.34 1.67-1.22 3.6-3.24 3.4-4.4-.43.4-12.76 1-12.56s0-4.17 0-4.17z"/><path class="cls-2" d="M37.97 24.56l-2.15 10.06M43 21.72h1.37a3 3 0 013 3v7.58a2.09 2.09 0 01-2.09 2.09h-5.21A2.09 2.09 0 0138 32.3v-7.74m4.81-8.84a3 3 0 000 6m4.23 1.74l3.92 10.26M38.97 49.33l-.99-16.97m9.33-.06l-.97 16.42m-3.75-9.32v9.5a.43.43 0 00.43.43h2.86a.43.43 0 00.43-.43"/><path class="cls-1" d="M16.79 37.48s2.68-.58 3.09 0-1.61 3.79.54 6.63-.54 6.63-1.33 6.13-.65-5.22-1.64-5.82-3-1.73-.66-6.94zm3.29-20.06l-.15.1a.19.19 0 01.15-.1zm0 .98a5.35 5.35 0 01-.08 3.92c-.07.12-.16.24-.24.36a3.31 3.31 0 00-.31 2.32 4.54 4.54 0 01-.26 1.63 6.06 6.06 0 00.16 4.46 6 6 0 01.51 3.77 2.35 2.35 0 01-1.12 1.44c-.14.09-1.58 1.07-1.58.6 0-.63.92-1.52.18-4.52a26 26 0 01-.5-6.67A1.34 1.34 0 0118 25c.82 0-.16-3.11-1.23-3.74.02.02 2.42-2.95 3.31-2.86z"/><path class="cls-2" d="M16.83 26.45l-3.79 8.17m10.86-9.26a1.92 1.92 0 01.16.42 3 3 0 01.11.8l-1 5.75 1 2.87v.24a2.11 2.11 0 01-2.09 1.86h-3.15a2.1 2.1 0 01-2.09-1.89v-.6l1-2.26-1-3.82v-2.28M18 20c0 1.56-1.82 2.47-1.82 2.47h1.9m2.42-4.9a2.44 2.44 0 00-1.68.66l-.13.13A2.48 2.48 0 0018 20"/><path class="cls-2" d="M23 20c0 1.56 1.82 2.47 1.82 2.47H23.5a1.42 1.42 0 00-1.42 1.42 1.42 1.42 0 001.42 1.42h.4l2.92 9.26m-6.32-17a2.44 2.44 0 011.68.66l.13.13A2.48 2.48 0 0123 20m-6.17 15.26l-1.22 9.15m8.55-9.22l1.3 9.22m-9.85 0h6.97v5.21m-3.78 0v-2.61"/><path class="cls-1" d="M30.08 42.51s2-.72 2 4.82c0 0-.11 2.65-1.56 2.61zm2.28-8.67c-.3 0 .05 1.57.07 1.71a6.2 6.2 0 01-.06 1.33c-.12 1.13 0 2.27-.2 3.39-.16.8-.59 1.73-1.56 1.64-2.12-.21.19-6.15.49-6.05s0-2 0-2z"/><path class="cls-2" d="M29.84 37.71l-3.02-3.09m7.51 3.15v3.67a1 1 0 01-1 1h-2.49a1 1 0 01-1-1v-3.73m.48 11.94l-.48-8.18m4.49-.03l-.48 8.21m-1.99-13.91a1.48 1.48 0 110-3"/></svg>