<svg xmlns="http://www.w3.org/2000/svg" width="64" height="64" viewBox="0 0 16.933 16.933"><g stroke-width=".812" color="#000" font-weight="400" font-family="sans-serif"><path d="M3.62 6.933a.326.326 0 00.167.05l9.35.146a.326.326 0 00.286-.162 3.14 3.14 0 00.022-3.113c-.518-.92-1.475-1.48-2.53-1.558-.6-.817-1.533-1.336-2.56-1.326-.959.01-1.83.476-2.43 1.196-1.044.102-1.972.675-2.464 1.588a3.141 3.141 0 00.05 3.066.326.326 0 00.11.113z" style="line-height:normal;font-variant-ligatures:normal;font-variant-position:normal;font-variant-caps:normal;font-variant-numeric:normal;font-variant-alternates:normal;font-feature-settings:normal;text-indent:0;text-align:start;text-decoration-line:none;text-decoration-style:solid;text-decoration-color:#000;text-transform:none;text-orientation:mixed;white-space:normal;shape-padding:0;isolation:auto;mix-blend-mode:normal;solid-color:#000;solid-opacity:1" overflow="visible" fill="#ffd180"/><path d="M12.94 7.481l-1.957.008a.326.326 0 00-.322.286l-.977 7.82a.326.326 0 00.322.366l1.629.002a.326.326 0 00.322-.272l1.305-7.83a.326.326 0 00-.323-.38z" style="line-height:normal;font-variant-ligatures:normal;font-variant-position:normal;font-variant-caps:normal;font-variant-numeric:normal;font-variant-alternates:normal;font-feature-settings:normal;text-indent:0;text-align:start;text-decoration-line:none;text-decoration-style:solid;text-decoration-color:#000;text-transform:none;text-orientation:mixed;white-space:normal;shape-padding:0;isolation:auto;mix-blend-mode:normal;solid-color:#000;solid-opacity:1" overflow="visible" fill="#e6e6e6"/><path d="M12.939 7.481l-1.956.008a.326.326 0 00-.323.286l-.878 7.032c.123.406.275.793.5 1.132l.02.022 1.333.002a.326.326 0 00.322-.272l1.305-7.83a.326.326 0 00-.323-.38z" style="line-height:normal;font-variant-ligatures:normal;font-variant-position:normal;font-variant-caps:normal;font-variant-numeric:normal;font-variant-alternates:normal;font-feature-settings:normal;text-indent:0;text-align:start;text-decoration-line:none;text-decoration-style:solid;text-decoration-color:#000;text-transform:none;text-orientation:mixed;white-space:normal;shape-padding:0;isolation:auto;mix-blend-mode:normal;solid-color:#000;solid-opacity:1" overflow="visible" fill="#ccc"/><path d="M8.377 7.488a.326.326 0 00-.327.325l-.015 7.825c.001.18.148.326.328.325l1.938-.003.03-.286.977-7.817a.326.326 0 00-.323-.366z" style="line-height:normal;font-variant-ligatures:normal;font-variant-position:normal;font-variant-caps:normal;font-variant-numeric:normal;font-variant-alternates:normal;font-feature-settings:normal;text-indent:0;text-align:start;text-decoration-line:none;text-decoration-style:solid;text-decoration-color:#000;text-transform:none;text-orientation:mixed;white-space:normal;shape-padding:0;isolation:auto;mix-blend-mode:normal;solid-color:#000;solid-opacity:1" overflow="visible" fill="#ff234e"/><path d="M8.375 7.481l-2.606.015a.326.326 0 00-.323.368l1.033 7.815c.022.161.16.281.322.282l1.895.002c.015-2.718.006-5.436.006-8.154a.326.326 0 00-.327-.328z" style="line-height:normal;font-variant-ligatures:normal;font-variant-position:normal;font-variant-caps:normal;font-variant-numeric:normal;font-variant-alternates:normal;font-feature-settings:normal;text-indent:0;text-align:start;text-decoration-line:none;text-decoration-style:solid;text-decoration-color:#000;text-transform:none;text-orientation:mixed;white-space:normal;shape-padding:0;isolation:auto;mix-blend-mode:normal;solid-color:#000;solid-opacity:1" overflow="visible" fill="#e6e6e6"/><path d="M3.815 7.481a.326.326 0 00-.322.38l1.304 7.83a.326.326 0 00.32.272h2.058c-.363-2.73-.723-5.46-1.084-8.19a.326.326 0 00-.32-.285z" style="line-height:normal;font-variant-ligatures:normal;font-variant-position:normal;font-variant-caps:normal;font-variant-numeric:normal;font-variant-alternates:normal;font-feature-settings:normal;text-indent:0;text-align:start;text-decoration-line:none;text-decoration-style:solid;text-decoration-color:#000;text-transform:none;text-orientation:mixed;white-space:normal;shape-padding:0;isolation:auto;mix-blend-mode:normal;solid-color:#000;solid-opacity:1" overflow="visible" fill="#ff234e"/><path d="M8.355.97c-.959.01-1.83.476-2.43 1.196-.915.09-1.74.541-2.262 1.267a3.237 3.237 0 011.61-.615c.6-.72 1.471-1.186 2.43-1.196 1.028-.01 1.961.51 2.56 1.326 1.055.078 2.013.637 2.53 1.558.455.809.518 1.767.203 2.621l.14.003a.326.326 0 00.287-.163 3.138 3.138 0 00.022-3.113c-.518-.92-1.475-1.48-2.53-1.558C10.317 1.479 9.384.96 8.356.97z" style="line-height:normal;font-variant-ligatures:normal;font-variant-position:normal;font-variant-caps:normal;font-variant-numeric:normal;font-variant-alternates:normal;font-feature-settings:normal;text-indent:0;text-align:start;text-decoration-line:none;text-decoration-style:solid;text-decoration-color:#000;text-transform:none;text-orientation:mixed;white-space:normal;shape-padding:0;isolation:auto;mix-blend-mode:normal;solid-color:#000;solid-opacity:1" overflow="visible" fill="#ffb464"/><path d="M8.377 7.488a.326.326 0 00-.327.325l-.005 2.918c.465.415.84.915 1.066 1.516.435 1.16.48 2.586 1.127 3.618a.383.383 0 01.063.096c.323-2.703.67-5.403 1.007-8.104a.326.326 0 00-.323-.366z" style="line-height:normal;font-variant-ligatures:normal;font-variant-position:normal;font-variant-caps:normal;font-variant-numeric:normal;font-variant-alternates:normal;font-feature-settings:normal;text-indent:0;text-align:start;text-decoration-line:none;text-decoration-style:solid;text-decoration-color:#000;text-transform:none;text-orientation:mixed;white-space:normal;shape-padding:0;isolation:auto;mix-blend-mode:normal;solid-color:#000;solid-opacity:1" overflow="visible" fill="#cc4542"/><path d="M8.375 7.481l-2.606.015a.326.326 0 00-.323.368l.213 1.61c1.218.358 2.36.998 3.043 1.992V7.808a.326.326 0 00-.327-.327z" style="line-height:normal;font-variant-ligatures:normal;font-variant-position:normal;font-variant-caps:normal;font-variant-numeric:normal;font-variant-alternates:normal;font-feature-settings:normal;text-indent:0;text-align:start;text-decoration-line:none;text-decoration-style:solid;text-decoration-color:#000;text-transform:none;text-orientation:mixed;white-space:normal;shape-padding:0;isolation:auto;mix-blend-mode:normal;solid-color:#000;solid-opacity:1" overflow="visible" fill="#ccc"/><path d="M3.815 7.481a.326.326 0 00-.322.38l.21 1.267c.862.057 1.792.24 2.644.58l-.256-1.936a.326.326 0 00-.32-.284z" style="line-height:normal;font-variant-ligatures:normal;font-variant-position:normal;font-variant-caps:normal;font-variant-numeric:normal;font-variant-alternates:normal;font-feature-settings:normal;text-indent:0;text-align:start;text-decoration-line:none;text-decoration-style:solid;text-decoration-color:#000;text-transform:none;text-orientation:mixed;white-space:normal;shape-padding:0;isolation:auto;mix-blend-mode:normal;solid-color:#000;solid-opacity:1" overflow="visible" fill="#cc4542"/><path d="M4.227 6.165a.988.988 0 00-.985.982c0 .54.445.984.985.984h8.358a.99.99 0 00.985-.984.988.988 0 00-.985-.982z" style="line-height:normal;font-variant-ligatures:normal;font-variant-position:normal;font-variant-caps:normal;font-variant-numeric:normal;font-variant-alternates:normal;font-feature-settings:normal;text-indent:0;text-align:start;text-decoration-line:none;text-decoration-style:solid;text-decoration-color:#000;text-transform:none;text-orientation:mixed;white-space:normal;shape-padding:0;isolation:auto;mix-blend-mode:normal;solid-color:#000;solid-opacity:1" overflow="visible" fill="#d64946"/><path d="M8.399 9.884a1.086 1.086 0 00-1.057 1.278 1.092 1.092 0 00-.753.75 1.094 1.094 0 001.794 1.095 1.096 1.096 0 001.82-1.012 1.089 1.089 0 00-.71-.81 1.09 1.09 0 00-1.094-1.3zM5.413 5.398a.326.326 0 00.332-.323.74.74 0 01.58-.712.738.738 0 01.827.395.326.326 0 00.438.146.326.326 0 00.147-.435 1.397 1.397 0 00-1.557-.741 1.397 1.397 0 00-1.087 1.337.326.326 0 00.32.333zm5.346-.13a.326.326 0 00.135-.131 1.253 1.253 0 00-.45-1.676 1.252 1.252 0 00-1.691.392.326.326 0 00.097.453.326.326 0 00.449-.099.592.592 0 01.808-.188c.28.167.374.518.216.803a.326.326 0 00.127.44.326.326 0 00.309.006z" style="line-height:normal;font-variant-ligatures:normal;font-variant-position:normal;font-variant-caps:normal;font-variant-numeric:normal;font-variant-alternates:normal;font-feature-settings:normal;text-indent:0;text-align:start;text-decoration-line:none;text-decoration-style:solid;text-decoration-color:#000;text-transform:none;text-orientation:mixed;white-space:normal;shape-padding:0;isolation:auto;mix-blend-mode:normal;solid-color:#000;solid-opacity:1" overflow="visible" fill="#f29312"/><path d="M4.227 6.165a.986.986 0 00-.937.7.962.962 0 01.285-.048h8.359c.539 0 .984.443.984.982 0 .1-.02.194-.048.284a.988.988 0 00.7-.936.988.988 0 00-.984-.982z" style="line-height:normal;font-variant-ligatures:normal;font-variant-position:normal;font-variant-caps:normal;font-variant-numeric:normal;font-variant-alternates:normal;font-feature-settings:normal;text-indent:0;text-align:start;text-decoration-line:none;text-decoration-style:solid;text-decoration-color:#000;text-transform:none;text-orientation:mixed;white-space:normal;shape-padding:0;isolation:auto;mix-blend-mode:normal;solid-color:#000;solid-opacity:1" overflow="visible" fill="#bd3f3c"/><path d="M8.399 9.884a1.1 1.1 0 00-.751.312c-.12.118-.206.259-.26.41a1.102 1.102 0 011.12.216c.292.264.403.653.333 1.016.353.126.634.422.71.81.04.198.018.396-.048.576.498-.183.804-.702.7-1.228a1.089 1.089 0 00-.71-.81 1.09 1.09 0 00-1.094-1.302zm-1.717 1.803c-.027.05-.05.1-.069.154.026-.01.05-.02.076-.027-.007-.042-.004-.084-.007-.127z" style="line-height:normal;font-variant-ligatures:normal;font-variant-position:normal;font-variant-caps:normal;font-variant-numeric:normal;font-variant-alternates:normal;font-feature-settings:normal;text-indent:0;text-align:start;text-decoration-line:none;text-decoration-style:solid;text-decoration-color:#000;text-transform:none;text-orientation:mixed;white-space:normal;shape-padding:0;isolation:auto;mix-blend-mode:normal;solid-color:#000;solid-opacity:1" overflow="visible" fill="#d98412"/></g></svg>